<?xml version="1.0" standalone="no"?><!DOCTYPE svg PUBLIC "-//W3C//DTD SVG 1.1//EN" "http://www.w3.org/Graphics/SVG/1.1/DTD/svg11.dtd"><svg t="1747845975846" class="icon" viewBox="0 0 1024 1024" version="1.1" xmlns="http://www.w3.org/2000/svg" p-id="14048" xmlns:xlink="http://www.w3.org/1999/xlink" width="200" height="200"><path d="M360.081957 788.533175c-31.42833-6.285666-38.776056-12.33291-67.191601-26.551519-40.430559-20.222504-76.042108-47.82886-106.849095-82.804618-30.799763-34.954082-53.905004-75.536364-69.308498-121.732396-15.396269-46.217707-20.858296-92.587136-16.364406-139.101064 4.49389-46.521153 16.848475-89.841673 37.056529-129.947111 20.21528-40.127113 47.807185-75.558039 82.782943-106.357802 34.968532-30.778088 75.543589-53.897779 121.754071-69.315723 46.210482-15.396269 92.572686-20.995569 139.101064-16.834025 46.521153 4.161544 89.834448 16.364406 129.932662 36.565236 40.105438 20.20083 75.550814 47.82886 106.372251 82.782942 30.792538 34.975757 53.196963 72.812576 68.607683 119.030283 3.598002 10.765106 3.38848 8.61931 4.927384 13.814015 13.561144 42.164536 83.563232 31.869049 80.817768-14.796602-3.554652-19.109869 0.115598-1.242683-6.112268-20.330878-18.611351-57.134536-47.034121-107.166991-85.203285-150.169616-38.183614-43.002625-82.096577-77.169193-131.854486-102.499704-49.743459-25.373861-103.323343-40.596732-160.761324-45.748087-57.423532-5.122456-114.695341 1.632828-171.808201 20.222504-57.120086 18.618576-107.318714 47.012446-150.653685 85.188835-43.298846 38.219739-77.472639 82.291649-102.492479 132.34578-25.041515 50.05413-40.127113 103.778512-45.242344 161.216493-5.122456 57.459656 1.596704 114.717015 20.200829 171.829876 18.604126 57.091186 47.012446 107.145317 85.196061 150.147941 38.176389 43.024299 81.07064 79.19939 131.86171 102.044535 43.103773 19.391641 59.576553 25.113764 87.031186 31.291056 40.502808 4.46499 64.178816-56.961138 18.199531-80.290351z" fill="#0B62AA" p-id="14049"></path><path d="M691.849519 239.794542c-27.909802-31.464454-60.140095-56.318122-96.719781-74.611577-36.579686-18.293455-75.731437-29.362007-117.433579-33.198431-41.716592-3.843649-83.425959 0.960912-125.120876 14.471482-41.723817 13.42387-78.46245 34.144893-110.223125 62.025795-31.760675 27.945926-56.78774 60.183445-75.081196 96.74868-18.293455 36.586911-29.195834 75.89761-32.728812 117.917648-3.518528 42.034488 1.45943 83.938927 14.92665 125.655519 13.488895 41.673242 34.173793 78.260153 62.083595 109.681257 27.917027 31.457229 60.16177 56.361471 96.73423 74.611577 26.1975 13.0843 33.25623 18.120058 62.09082 23.632659 35.416476 6.841983 50.444275-21.963706 31.226032-41.174724-7.990743-0.317896-6.69026-2.21082-6.690261-2.210821s-21.349589-6.394039-35.120255-11.53817c-13.814015-5.122456-28.726216-12.484633-44.779951-22.129879-14.746028-8.966105-27.25956-17.968335-37.533372-26.941665-10.259363-9.009454-18.929247-17.346993-25.995203-25.027065a252.084102 252.084102 0 0 1-20.200829-26.941665l135.719809-78.000056c3.215082 2.615415 6.097818 5.144131 8.662659 7.745096 2.572066 2.528716 5.454802 5.108007 8.662659 7.680073 3.193407 2.572066 6.73361 4.782886 10.584483 6.73361a65.183078 65.183078 0 0 0 20.21528 9.630796 42.113962 42.113962 0 0 0 11.559845 3.858098l-0.946462 110.945616c0 31.095984 50.993368 30.409618 50.993368-1.690628V559.373691c3.207857-0.643016 6.726385-1.632828 10.584483-2.918861 3.215082-1.264358 6.907008-2.550391 11.075777-3.836423a46.094883 46.094883 0 0 0 12.036689-5.794373 170.796715 170.796715 0 0 0 9.630796-6.242316c3.215082-2.25417 6.090594-4.334942 8.662659-6.263992 2.557616-2.572066 5.447577-5.122456 8.662659-7.694522l83.73663 37.937968c33.545226 19.218243 57.221234-15.786414 34.137668-35.821071-30.452968-18.401829-95.744419-44.45483-95.744419-44.45483 0.650241-3.865323 1.611153-7.723422 2.889962-11.58152 0.650241-3.171733 1.300483-7.037056 1.936274-11.538171 0.650241-4.501115 0.946462-8.98778 0.946462-13.488894 0-3.193407-0.151723-6.885333-0.462394-11.068552a90.867609 90.867609 0 0 0-1.452205-11.068552l-1.921825-11.516496 136.695172-78.968194c4.472215 7.723422 8.323089 17.332543 11.545395 28.892389 3.215082 9.630796 3.836424 10.786781 6.097818 25.547258 18.6547 28.155448 52.972991 9.284001 44.772726-18.813648-2.355318-10.743431-3.135608-10.439985-6.603561-21.168967-13.48167-41.709367-34.209917-78.274603-62.112494-109.717382zM337.648633 461.16558c0.317896 3.865323 0.78029 7.354952 1.437755 10.591708 0.643016 3.843649 1.596704 7.701747 2.882737 11.538171L204.334716 562.241978c-4.49389-7.694522-8.351988-17.325318-11.55262-28.892389-3.215082-9.630796-6.105043-21.66026-8.662659-36.095617-2.572066-14.435357-3.525753-31.269382-2.897187-50.530974 0-16.689527 1.452206-31.912398 4.334942-45.748088 2.882736-13.770666 5.938871-25.503909 9.146728-35.105805 3.850873-11.538171 8.012418-21.833658 12.513533-30.821438l135.719809 78.968194a75.211244 75.211244 0 0 0-2.882737 11.516496c-1.921824 7.080405-2.882736 15.100048-2.882736 24.087828-0.007225 3.850873 0.144498 7.687297 0.476844 11.545395z m46.196032-102.02286a60.197895 60.197895 0 0 1-9.139503 6.73361c-3.215082 2.550391-6.430164 4.819011-9.630796 6.755285L228.386419 293.685096c5.144131-8.344763 11.545396-16.682302 19.261593-25.027065 7.058731-7.058731 16.205458-15.251771 27.432958-24.557447 11.234725-9.291226 25.186013-18.748624 41.875539-28.39387 14.753253-8.344763 28.531143-14.60153 41.391472-18.770299a521.927017 521.927017 0 0 1 34.643411-10.100415c11.559845-2.557616 22.787345-4.183219 33.696949-4.80456v157.849688c-3.865323 0.643016-7.701747 1.611153-11.559845 2.897186-7.058731 1.907374-14.435357 5.144131-22.129879 9.609121-3.222307 1.950724-6.256766 4.161544-9.153952 6.755285z m110.2159 131.854486c-11.55262 11.559845-25.670082 17.325318-42.359608 17.325318-16.682302 0-30.63359-5.772698-41.86109-17.325318-11.234725-11.538171-16.848475-25.670082-16.848475-42.359608 0-16.646177 5.606525-30.626365 16.848475-41.84664 11.2275-11.24195 25.178788-16.877374 41.86109-16.877375 16.689527 0 30.806988 5.635425 42.359608 16.877375 11.55262 11.21305 17.318093 25.200463 17.318093 41.84664 0 16.689527-5.772698 30.821438-17.318093 42.359608z m43.313296-115.511755l-8.66266-8.640984a52.987441 52.987441 0 0 0-9.153952-7.210454 119.593825 119.593825 0 0 1-10.114865-7.246578 100.642904 100.642904 0 0 0-10.085965-5.259729c-3.540203-1.654503-6.907008-3.085034-10.114865-4.356617l-11.545395-3.858098v-158.803376c8.97333 0.621342 19.247142 2.25417 30.799763 4.804561 9.630796 2.572066 21.349589 6.285666 35.149155 11.090227 13.799565 4.804561 29.029662 12.007789 45.704738 21.638585 14.760478 8.98778 27.27401 18.141732 37.533373 27.425733 10.273813 9.3129 18.936472 17.823837 25.995202 25.525584a319.485226 319.485226 0 0 1 20.208055 25.995202l-135.712584 78.895944z m-166.996416 381.236475c35.416476 6.841983 50.444275-21.963706 31.226032-41.174724-6.516863-2.405893-6.69026-2.21082-6.690261-2.210821s-21.349589-6.394039-35.120255-11.53817" fill="#0B62AA" p-id="14050"></path><path d="M995.411057 515.749725a31.175458 31.175458 0 0 0-20.800496-25.373861 31.175458 31.175458 0 0 0-32.215844 7.10208l-45.336269 43.811814a40.950752 40.950752 0 0 1-21.233991-11.176925 40.972427 40.972427 0 0 1-11.96444-23.91443l41.348122-39.332374a31.471679 31.471679 0 0 0 8.763808-30.727514 31.37053 31.37053 0 0 0-22.476674-22.476674c-27.107837-7.015381-95.166427-19.001496-141.124037 22.050405-32.129145 28.675641-44.772726 75.341292-37.72122 138.739818-4.696187 4.970733-11.263624 11.834392-18.813649 19.731211-20.388677 21.378489-47.698812 49.989106-65.912793 69.611944-21.436288 19.622837-40.286061 36.847007-51.094516 46.687326-63.55025-7.11653-110.331499 5.534276-139.043265 37.685095-41.073575 46.00096-29.080236 114.030649-21.985381 141.160162a31.341631 31.341631 0 0 0 22.520024 22.454999 31.500579 31.500579 0 0 0 30.669714-8.771032l39.310699-41.348122a40.842379 40.842379 0 0 1 23.907206 11.942765 40.929077 40.929077 0 0 1 11.176925 21.255666l-43.833488 45.379618a31.341631 31.341631 0 0 0-7.094856 32.100245 31.283831 31.283831 0 0 0 25.373861 20.851071c9.515198 1.329382 23.235289 2.723789 38.971129 2.723789 37.193802 0 85.723478-7.723422 117.007309-42.142861 26.385347-29.000762 34.795134-69.958739 25.01984-121.992493 0.845314-0.816414 1.748427-1.668953 2.694889-2.550391 10.765106-10.252138 24.579121-23.444811 34.274942-33.24178 9.522423-9.074479 46.102108-46.32608 82.905766-83.902803l15.100048-15.374594c52.098778 9.804194 93.172353 1.394406 122.202015-25.027065 48.984845-44.606553 43.862388-123.935992 39.404622-155.935089z m-76.229955 115.44673c-17.245844 15.699715-46.102108 18.871448-85.651229 9.479073-10.598933-2.492592-21.573561 0.469619-29.268083 8.041318-1.640053 1.560579-11.458697 11.59597-24.65137 25.04874-24.810318 25.352186-64.547286 65.905568-78.231254 79.351113l-0.130048-0.108373c-8.113566 8.648209-25.778455 25.438885-37.468349 36.550786-6.292891 5.98222-11.176925 10.656732-12.910902 12.419608a31.103209 31.103209 0 0 0-8.084667 29.253634c9.385149 39.614145 6.206192 68.477634-9.486298 85.701803-12.824203 14.117461-34.448339 21.017244-57.712528 23.358113l14.305309-14.818277a31.04541 31.04541 0 0 0 8.915531-21.515762 95.282025 95.282025 0 0 0-27.642481-68.78108 95.390399 95.390399 0 0 0-68.398159-28.610617h-4.118195a31.7968 31.7968 0 0 0-22.772896 9.760844l-12.441283 13.0843c0.729715-17.245844 5.108007-33.501877 15.165072-44.779951 21.638585-24.275675 67.112127-23.524285 101.509892-18.575226a31.283831 31.283831 0 0 0 25.214912-7.593373c6.646911-5.938871 29.080236-26.421472 56.361471-51.390738l0.41182 0.36847c1.358282-1.50278 2.933311-3.193407 4.443315-4.826235l3.063359-2.788813-0.238421-0.260096c17.97556-19.369966 44.310332-46.947422 64.048768-67.603421 13.958513-14.644879 24.723619-25.951853 27.27401-28.798465a31.269382 31.269382 0 0 0 7.550024-25.200463c-4.912934-34.332741-5.657099-79.806282 18.568001-101.444867 11.234725-10.07874 27.534107-14.435357 44.772726-15.165072l-12.997601 12.354584a31.543928 31.543928 0 0 0-9.833093 22.83792v4.118195c0 25.930178 10.158214 50.227528 28.603392 68.419834 18.474078 18.206756 42.063387 27.924251 68.860554 27.664155a31.211582 31.211582 0 0 0 21.32069-8.857731l14.92665-14.392008c-2.25417 23.256964-9.211752 44.873875-23.278639 57.698078z" fill="#0B62AA" p-id="14051"></path></svg>